<svg version="1.1" id="Ebene_1" xmlns="http://www.w3.org/2000/svg" x="0" y="0" viewBox="0 0 509.4 141.4" xml:space="preserve"><style>.st0{fill:#002943}.st1{fill:#e25200}</style><path class="st0" d="M243.1 122.2c.6-2.5 1.2-4.9 1.9-7.4 2 .4 3.9.8 5.7 1 7.5.8 10.7-2.3 10.1-10.5-2.8 4.2-6.6 5.2-10.9 5-5-.3-8.6-2.5-10.3-7.3-2.2-6.2-2.4-12.6-.3-18.9 2.1-6.2 7.2-8.2 13.1-8.6 6.2-.4 12.3.2 18.5 2.1v28.9c0 1.4 0 2.8-.3 4.2-1.5 8.1-6.7 12.8-15 13.5-4.1.3-8.4-.3-12.5-2zm17.8-30.7c0-1.6-.2-3.2 0-4.7.3-2.3-.7-3.2-2.8-3.3-.8 0-1.7-.2-2.5-.2-4.6-.1-6.9 1.8-7.4 6.3-.3 2.5-.2 5 0 7.4.4 3.9 2.9 5.7 6.7 5.4 3.5-.3 5.9-2.9 6-6.4v-4.5zM231.3 112.6h-9.8V95.3c0-2.3 0-4.7-.4-7-.6-3.9-2.2-5.1-5.9-4.7-3.4.3-5.7 2.8-5.7 6v21c0 .6-.1 1.1-.1 1.9h-10.1V77.1c1.8-.5 4.3-1.1 7-1.8.6 1.6 1.2 3.2 2 5.2 2.7-3.9 6.4-5.2 10.8-5.2 7.6.1 12 3.9 12.2 11.5.2 8.5 0 17 0 25.8zM181.3 77.5c3.4-.4 6.5-.8 10.2-1.2v35.5c-1.9.5-4.4 1.2-7.1 1.9-.6-1.7-1.2-3.2-1.9-5.1-2.8 3.9-6.6 5.3-11.1 5.2-7.4-.2-11.7-3.8-12-11.2-.4-8.2-.1-16.5-.1-25 3.2-.4 6.3-.8 9.8-1.2v14.8c0 3.2 0 6.5.4 9.7.5 3.8 2.2 4.9 5.8 4.6 3.4-.3 5.8-2.7 5.8-6V80.8c.2-1 .2-2 .2-3.3zM68.1 77.5c3.2-.4 6.3-.7 9.6-1.1 0 .8.1 1.5.1 2.2v17.7c0 1.5.1 3 .4 4.5.7 3.8 2.2 5 5.8 4.6 3.5-.3 5.9-2.7 5.9-5.9V80.3v-2.8c3.4-.4 6.5-.8 10.2-1.2v35.5c-1.8.5-4.3 1.2-7.1 1.9-.6-1.7-1.2-3.3-1.9-5.2-2.8 4-6.5 5.3-11 5.2-7.1-.2-11.3-3.1-11.9-10.2-.6-8.5-.1-17.2-.1-26zM276.8 110.4c1-2.6 1.8-4.8 2.5-6.7 3.7.8 7.2 1.6 10.8 2.2 1.2.2 2.6.1 3.7-.4.9-.4 1.8-1.4 2-2.2.1-.8-.5-2.2-1.3-2.7-1.3-.9-2.8-1.3-4.3-1.8-1.9-.7-4-1.2-5.9-2.1-4.7-2.1-6.8-5.6-6.6-10.7.2-4.7 2.9-8.1 7.6-9.7 5.5-1.9 14.4-.9 18.8 2.3-.8 2.2-1.7 4.4-2.5 6.5-2.6-.6-5-1.2-7.4-1.6-1.3-.2-2.8-.3-3.9.1s-2.7 1.6-2.8 2.5c-.1 1 1.1 2.6 2.2 3.1 2.5 1.1 5.2 1.7 7.8 2.6 6.7 2.5 9.3 6.9 7.9 13.5-.7 3.2-2.5 5.6-5.4 6.7-7.9 3.1-15.5 1.9-23.2-1.6zM317.8 112.6h-5.3V77.7c-.3-.1-.5-.1-.8-.2.6-.2 1.2-.5 1.8-.6.6-.2 1.3-.3 2.2-.5.5 1.6 1 3.2 1.5 4.9 8.9-7 15.5-6.7 21.9.9 2.4-3.6 5.8-5.4 10-5.7 8.1-.6 12.7 3.1 13.1 11.4.4 8.1.1 16.3.1 24.7h-4.8V97.4c0-3.3-.1-6.7-.3-10-.2-2.7-1-5.4-4-6.3-3.4-1-6.7-.8-9.4 1.7-2.2 2-3.5 4.4-3.5 7.7.2 7.3.1 14.6.1 22.1h-5V110 90.8c0-.9 0-1.8-.1-2.7-.3-2.9-.9-5.8-4.1-6.8-3.3-1.1-6.6-1.1-9.5 1.2-2.4 2-4.1 4.4-4 7.9.2 6.6.1 13.2.1 19.7v2.5zM105.7 84.9v-7.4c1.7-.1 3.2-.1 4.9-.2-.3-4.9-.3-9.8 4.2-12.9 3.9-2.6 8.3-2.4 12.9-1.5-.3 2.5-.5 4.8-.7 6.6-2.4.8-4.8 1-6.2 2.3-1 .9-.5 3.4-.7 5.6h8.3c-.3 2.5-.5 4.8-.8 7.3h-6.7v27.8h-10V84.8c-1.7.1-3.3.1-5.2.1zM151.1 109.6c-2.2 1.5-4.3 3-6.5 4.5-3.6-1.7-5.7-4.6-6.6-8.3-.8-3.2-1-6.6-1.2-9.9-.2-4 0-8 0-12.2h-5.2v-7.4c1.6-.1 3.2-.1 5.1-.2V65.5c3.4-.4 6.6-.9 10-1.3v11.9h7.6c-.3 2.7-.6 5-.9 7.5h-6.7c.8 9-2.1 18.2 4.4 26zM49.6 64c3.2-.4 6.3-.8 10-1.2v49.9c-2.2 0-4.9.1-7.6-.1-.5 0-1.3-.9-1.5-1.5-.5-2.2-1-4.4-1-6.6-.1-13.1-.1-26.1-.1-39.2 0-.4.1-.8.2-1.3zM393.2 91.8c.8-7.4-3.3-11.7-10.4-10.9-2.7.3-5.4 1.1-8.4 1.7-.4-1-.9-2.2-1.6-3.6 5.7-2.6 11.4-3.6 17.3-1.7 5 1.7 7.9 5.7 8.1 11.1.2 6 .3 12 .5 18 .1 1.9.4 3.8.7 5.8-1.3.3-2.4.6-3.9 1-.5-1.7-1-3.3-1.6-5.2-4.4 5.5-10.1 5.8-16.1 4.7-4.6-.8-6.8-3.4-7.3-7.9-.5-4.9 1-8.6 5.3-9.9 5-1.5 10.2-2.1 15.3-3.1h2.1zm-.1 4.3c-5.2.2-10.4.3-15.1 2.7-2.3 1.2-3 3.2-2.6 5.7.3 2.4 1.7 3.8 3.9 4.3 8.2 1.8 15.7-3 13.8-12.7zM441.1 92.5c5.6 6.4 10.5 12.2 15.7 18.1-1.6.9-3 1.7-4.6 2.6-5.4-6.4-10.6-12.7-16.3-19.5v18.8H431v-49c1.6-.2 3.1-.4 4.7-.7v29.6c5.4-5.7 10.4-10.9 15.4-16.1 1.5.7 2.9 1.4 5.1 2.4-5.2 4.8-10.1 9.3-15.1 13.8zM465.4 66c1.8-.2 3.2-.4 4.9-.7v11.4h8c-.1 1.5-.2 2.8-.4 4.4h-7.8c.3 8 .3 15.6 1 23.2.2 2.3 2.1 4.4 3.4 6.9-.7.6-1.7 1.5-2.9 2.5-4.7-3.4-5.9-8.3-6.1-13.6-.2-5.3-.1-10.7-.1-16v-2.9h-5.9v-4.3h5.8c.1-3.8.1-7.2.1-10.9z"/><path class="st1" d="M54.3 45.1c0 5.4-3.8 9.2-9.3 9.2-5.1.1-9.1-3.9-9.1-9.2 0-5.2 3.9-9.2 9.1-9.2 5.3 0 9.2 3.8 9.3 9.2z"/><path class="st0" d="M411.3 76.3c.6 2.1 1.1 3.9 1.7 6.2 2.6-4 6-5.9 10.6-6 .2 1.7.5 3.3.8 5-1.3.3-2.5.5-3.7.8-4.4 1.1-7.3 5-7.3 9.5v20.8h-4.7c-.2-11.6-.5-23.3-.7-35.3.5-.3 1.7-.6 3.3-1zM97.3 66.9c0 3.2-1.7 4.8-5.3 4.8-3.6 0-5.6-1.7-5.5-4.9 0-3.1 2-4.8 5.4-4.9 3.6 0 5.4 1.7 5.4 5zM76.1 71.7c-3.7 0-5.5-1.6-5.5-4.9 0-3.2 2-4.9 5.5-4.9s5.4 1.8 5.3 5.1c.1 3.2-1.7 4.7-5.3 4.7z"/><path d="M393.1 96.1c1.9 9.7-5.7 14.5-13.8 12.6-2.2-.5-3.6-1.9-3.9-4.3-.3-2.5.3-4.5 2.6-5.7 4.7-2.3 9.9-2.4 15.1-2.6z" fill="#fff"/><path class="st1" d="M32 41.9c-6.4-.2-13-.6-19.6-.4-4 .1-7.5 2.1-9.1 6C1 53.2 1.9 58.8 4.7 64.1c1.1 2.1 2.7 2.4 4.8 1 7.7-4.9 15.3-9.9 23-15-.6-1.5-.9-3.2-.9-5 0-1.1.2-2.1.4-3.2zM33.9 52.8c-.3 0-.5 0-.6.1-4.7 4.1-9.5 8.1-13.7 12.7-1.7 1.8-2.8 4.9-2.9 7.5-.2 5.7 8.2 13.7 14.1 14 2.4.3 3-1.3 3.4-3.3 1.7-7.7 3.1-15.5 5.1-23.1.3-1.2.6-2.3.6-3.1-2.4-.9-4.5-2.6-6-4.8zM37.8 33.7c-3.9-4.3-7.9-8.9-12.1-13.3-1-1.1-2.4-1.8-3.7-2.5-3.4-1.8-6.9-1.8-10.2.3-4 2.6-6.8 6.3-8.5 10.8-1.2 3.1-.2 4.6 2.9 5.2 6.4 1.3 12.9 2.6 19.3 4 2.4.5 4.8 1.4 6.9 2.2 1.1-2.9 3-5.2 5.4-6.7zM48 32c.2-6.1.7-12.3.7-18.6-.1-5.6-2.8-9.2-7.5-10.6-5.2-1.6-10.3-.7-15 1.7-2.3 1.2-2.7 2.8-1.3 4.9 5 7.7 10 15.3 15.1 23.1 1.5-.6 3.1-.9 4.8-.9 1.1.1 2.2.2 3.2.4zM56.3 37.5c5.4-4.4 11.5-8.3 15.4-14.6 2.7-4.3 2.3-9.3-1.2-12.9-2.4-2.4-5.3-4.6-8.3-6.3-3.7-2.1-5.8-.8-6.7 3.4-1.8 8.2-3.7 16.3-5.5 24.5-.1.3 0 .6 0 .9 2.6 1 4.8 2.7 6.3 5zM86 27.1c-1.2-2.5-4.1-3.2-6.4-1.7-6.4 4.2-12.7 8.5-19.3 12.3-1.1.7-2.2 1.2-2.9 1.9.7 1.6 1 3.4 1 5.4 0 .8-.1 1.6-.2 2.4.3.2.7.3 1.2.3 2.5.2 4.9.5 7.4.8 3.3.4 6.7.5 10 .2h.5c5.3-.5 8.9-3.3 10-8 1.1-4.7.7-9.3-1.3-13.6z"/><path class="st0" d="M491.6 73.2h-1.3v-9.7h-3.4v-1.1h8.1v1.1h-3.4v9.7zM501.5 73.2l-3.7-9.6h-.1c.1.8.1 1.7.1 2.7v6.9h-1.2V62.4h1.9l3.4 8.9h.1l3.5-8.9h1.9v10.8h-1.3v-7c0-.8 0-1.7.1-2.6h-.1l-3.7 9.6h-.9z"/><g><path class="st1" d="M60.4 139.2h-1.5v-5.9h-6.6v5.9h-1.5v-12.6h1.5v5.4h6.6v-5.4h1.5v12.6zM69.4 139.2l-.3-1.3H69c-.5.6-.9 1-1.4 1.2-.5.2-1.1.3-1.8.3-.9 0-1.7-.2-2.2-.7-.5-.5-.8-1.2-.8-2.1 0-1.9 1.5-2.9 4.6-3l1.6-.1v-.5c0-.7-.2-1.3-.5-1.6s-.8-.5-1.5-.5c-.8 0-1.7.2-2.7.7l-.4-1.1c.5-.3 1-.5 1.5-.6.6-.1 1.1-.2 1.7-.2 1.1 0 2 .2 2.5.8s.8 1.3.8 2.4v6.4h-1zm-3.2-1c.9 0 1.6-.2 2.1-.7.5-.5.8-1.2.8-2.1v-.9l-1.4.1c-1.1 0-2 .2-2.5.5s-.8.8-.8 1.5c0 .5.2.9.5 1.2.3.3.7.4 1.3.4zM74.8 129.8v6.1c0 .8.2 1.3.5 1.7.4.4.9.6 1.6.6 1 0 1.7-.3 2.2-.8.5-.5.7-1.4.7-2.6v-5h1.4v9.4H80l-.2-1.3h-.1c-.3.5-.7.8-1.2 1.1s-1.1.4-1.8.4c-1.1 0-2-.3-2.6-.8s-.9-1.4-.9-2.6v-6.2h1.6zM90.4 136.6c0 .9-.3 1.6-1 2-.7.5-1.6.7-2.8.7-1.3 0-2.2-.2-2.9-.6v-1.3c.5.2.9.4 1.5.5.5.1 1 .2 1.5.2.7 0 1.3-.1 1.7-.4.4-.2.6-.6.6-1.1 0-.4-.2-.7-.5-.9-.3-.3-.9-.6-1.9-.9-.9-.3-1.5-.6-1.9-.9s-.6-.5-.8-.8c-.2-.3-.3-.7-.3-1.1 0-.8.3-1.4.9-1.8s1.5-.7 2.6-.7c1 0 2 .2 3 .6l-.5 1.2c-.9-.4-1.8-.6-2.6-.6-.7 0-1.2.1-1.5.3-.3.2-.5.5-.5.9 0 .3.1.5.2.6s.3.3.6.5.8.4 1.7.7c1.1.4 1.9.8 2.3 1.2.4.6.6 1.1.6 1.7zM95.7 138.2c.3 0 .5 0 .7-.1.2 0 .4-.1.6-.1v1.1c-.2.1-.4.1-.7.2s-.6.1-.8.1c-1.8 0-2.7-1-2.7-2.9v-5.6h-1.4v-.7l1.4-.6.6-2h.8v2.2H97v1.1h-2.7v5.6c0 .6.1 1 .4 1.3s.6.4 1 .4zM102.9 139.4c-1.4 0-2.5-.4-3.3-1.3-.8-.8-1.2-2-1.2-3.5s.4-2.7 1.1-3.6c.7-.9 1.8-1.3 3-1.3s2.1.4 2.8 1.2c.7.8 1 1.8 1 3.1v.9h-6.5c0 1.1.3 2 .8 2.5.5.6 1.3.9 2.2.9 1 0 2-.2 3-.6v1.3c-.5.2-1 .4-1.4.5-.3-.1-.8-.1-1.5-.1zm-.4-8.6c-.8 0-1.4.2-1.8.7-.5.5-.7 1.2-.8 2.1h4.9c0-.9-.2-1.6-.6-2.1-.4-.5-.9-.7-1.7-.7zM112.6 139.4c-1.4 0-2.4-.4-3.2-1.3-.8-.8-1.1-2-1.1-3.6s.4-2.8 1.1-3.7c.8-.9 1.8-1.3 3.3-1.3.5 0 .9 0 1.4.1.5.1.8.2 1.1.3l-.4 1.2c-.3-.1-.7-.2-1-.3-.4-.1-.7-.1-1-.1-1.9 0-2.9 1.2-2.9 3.7 0 1.2.2 2.1.7 2.7.5.6 1.2.9 2.1.9.8 0 1.6-.2 2.4-.5v1.3c-.7.4-1.5.6-2.5.6zM123.7 139.2v-6.1c0-.8-.2-1.3-.5-1.7-.4-.4-.9-.6-1.6-.6-1 0-1.7.3-2.2.8-.5.5-.7 1.4-.7 2.7v4.9h-1.4v-13.4h1.4v4.1c0 .5 0 .9-.1 1.2h.1c.3-.5.7-.8 1.2-1.1.5-.3 1.1-.4 1.8-.4 1.2 0 2 .3 2.6.8.6.5.9 1.4.9 2.6v6.2h-1.5zM134.5 139.2v-6.1c0-.8-.2-1.3-.5-1.7-.4-.4-.9-.6-1.6-.6-1 0-1.7.3-2.2.8-.5.5-.7 1.4-.7 2.6v5h-1.4v-9.4h1.2l.2 1.3h.1c.3-.5.7-.8 1.2-1.1.5-.3 1.1-.4 1.8-.4 1.1 0 2 .3 2.6.8.6.5.9 1.4.9 2.6v6.2h-1.6zM138.8 127.2c0-.3.1-.6.2-.7.2-.2.4-.2.6-.2.2 0 .4.1.6.2.2.2.2.4.2.7 0 .3-.1.6-.2.7-.2.2-.4.2-.6.2-.2 0-.4-.1-.6-.2-.1-.1-.2-.4-.2-.7zm1.5 12h-1.4v-9.4h1.4v9.4zM144.8 134.4c.2-.4.6-.8 1.1-1.4l3.1-3.2h1.7l-3.8 4 4.1 5.4h-1.7l-3.3-4.5-1.1.9v3.5h-1.4v-13.4h1.4v7.1c-.1.4-.1.9-.1 1.6zM161.5 130.9h-2.4v8.3h-1.4v-8.3H156v-.6l1.7-.5v-.5c0-2.3 1-3.5 3-3.5.5 0 1.1.1 1.8.3l-.4 1.1c-.6-.2-1-.3-1.4-.3-.5 0-.9.2-1.2.5-.3.4-.4.9-.4 1.7v.6h2.4v1.2zM164.5 129.8v6.1c0 .8.2 1.3.5 1.7.4.4.9.6 1.6.6 1 0 1.7-.3 2.2-.8.5-.5.7-1.4.7-2.6v-5h1.4v9.4h-1.2l-.2-1.3h-.1c-.3.5-.7.8-1.2 1.1s-1.1.4-1.8.4c-1.1 0-2-.3-2.6-.8s-.9-1.4-.9-2.6v-6.2h1.6zm.1-2.6c0-.3.1-.5.2-.6.2-.1.3-.2.5-.2s.4.1.6.2c.2.1.2.3.2.6s-.1.5-.2.6c-.2.1-.3.2-.6.2-.2 0-.4-.1-.5-.2-.1-.1-.2-.3-.2-.6zm3.3 0c0-.3.1-.5.2-.6.2-.1.3-.2.5-.2s.4.1.6.2c.2.1.2.3.2.6s-.1.5-.2.6c-.2.1-.3.2-.6.2-.2 0-.4-.1-.5-.2s-.2-.3-.2-.6zM178.3 129.6c.4 0 .8 0 1.1.1l-.2 1.3c-.4-.1-.7-.1-1-.1-.8 0-1.4.3-2 .9-.5.6-.8 1.4-.8 2.3v5.1H174v-9.4h1.2l.2 1.7h.1c.4-.6.8-1.1 1.3-1.4s.9-.5 1.5-.5zM194 130.3c0 1.3-.4 2.3-1.3 2.9-.9.7-2.1 1-3.7 1h-1.5v5H186v-12.6h3.3c3.2 0 4.7 1.2 4.7 3.7zm-6.5 2.7h1.3c1.3 0 2.2-.2 2.8-.6.6-.4.9-1.1.9-2 0-.8-.3-1.5-.8-1.9-.5-.4-1.4-.6-2.6-.6h-1.6v5.1zM200.8 129.6c.4 0 .8 0 1.1.1l-.2 1.3c-.4-.1-.7-.1-1-.1-.8 0-1.4.3-2 .9-.5.6-.8 1.4-.8 2.3v5.1h-1.4v-9.4h1.2l.2 1.7h.1c.4-.6.8-1.1 1.3-1.4s.9-.5 1.5-.5zM211.8 134.5c0 1.5-.4 2.7-1.2 3.6-.8.9-1.8 1.3-3.2 1.3-.8 0-1.6-.2-2.2-.6-.7-.4-1.2-1-1.5-1.7-.4-.7-.5-1.6-.5-2.6 0-1.5.4-2.7 1.2-3.6.8-.9 1.8-1.3 3.2-1.3 1.3 0 2.4.4 3.2 1.3.6.9 1 2.1 1 3.6zm-7.2 0c0 1.2.2 2.1.7 2.8.5.6 1.2.9 2.1.9s1.6-.3 2.1-.9c.5-.6.7-1.5.7-2.8 0-1.2-.2-2.1-.7-2.7-.5-.6-1.2-.9-2.2-.9-.9 0-1.6.3-2.1.9-.4.6-.6 1.5-.6 2.7zM218.6 130.9h-2.4v8.3h-1.4v-8.3H213v-.6l1.7-.5v-.5c0-2.3 1-3.5 3-3.5.5 0 1.1.1 1.8.3l-.4 1.1c-.6-.2-1-.3-1.4-.3-.5 0-.9.2-1.2.5-.3.4-.4.9-.4 1.7v.6h2.4v1.2zm1.6-3.7c0-.3.1-.6.2-.7.2-.2.4-.2.6-.2.2 0 .4.1.6.2.2.2.2.4.2.7 0 .3-.1.6-.2.7-.2.2-.4.2-.6.2-.2 0-.4-.1-.6-.2-.1-.1-.2-.4-.2-.7zm1.5 12h-1.4v-9.4h1.4v9.4zM230.9 136.6c0 .9-.3 1.6-1 2-.7.5-1.6.7-2.8.7-1.3 0-2.2-.2-2.9-.6v-1.3c.5.2.9.4 1.5.5.5.1 1 .2 1.5.2.7 0 1.3-.1 1.7-.4.4-.2.6-.6.6-1.1 0-.4-.2-.7-.5-.9-.3-.3-.9-.6-1.9-.9-.9-.3-1.5-.6-1.9-.9s-.6-.5-.8-.8c-.2-.3-.3-.7-.3-1.1 0-.8.3-1.4.9-1.8s1.5-.7 2.6-.7c1 0 2 .2 3 .6l-.5 1.2c-.9-.4-1.8-.6-2.6-.6-.7 0-1.2.1-1.5.3-.3.2-.5.5-.5.9 0 .3.1.5.2.6s.3.3.6.5.8.4 1.7.7c1.1.4 1.9.8 2.3 1.2.4.6.6 1.1.6 1.7z"/></g></svg>