<?xml version="1.0" encoding="utf-8"?>
<!-- Generator: Adobe Illustrator 27.2.0, SVG Export Plug-In . SVG Version: 6.00 Build 0)  -->
<svg version="1.1" id="KM_Logo" xmlns="http://www.w3.org/2000/svg" xmlns:xlink="http://www.w3.org/1999/xlink" x="0px" y="0px"
	 viewBox="0 0 841.89 595.28" style="enable-background:new 0 0 841.89 595.28;" xml:space="preserve">
<style type="text/css">
	.st0{fill:#025AA1;}
	.st1{fill:#FFFFFF;}
</style>
<g>
	<rect x="130.11" y="199.41" class="st0" width="181.01" height="176"/>
	<path class="st1" d="M274.69,215.76c-9.07,0-15.15,2.33-18.77,11.58c-3.62-9.25-9.7-11.58-18.77-11.58
		c-11.4,0-18.77,8.69-18.77,19.41c0,0.1,0,0.2,0,0.29v1.32v116.66l-66.09-66.09l64.08-68.23h-68.62v139.93h70.62h21.45V239.87v-3.69
		v-1.01c0-1.48,1.2-2.68,2.68-2.68c1.48,0,2.68,1.2,2.68,2.68v0.84v3.85v119.19h21.45V239.87v-3.08v-1.61c0-1.48,1.2-2.68,2.68-2.68
		c1.48,0,2.68,1.2,2.68,2.68v4.69h0v119.19h21.45V236.79v-1.32c0-0.1,0-0.19,0-0.29C293.46,224.45,286.09,215.76,274.69,215.76z"/>
	<g>
		<g>
			<path d="M334.19,276.29v-32.21h6.5v14.3l13.14-14.3h8.75l-12.13,12.55l12.79,19.67h-8.42l-8.85-15.12l-5.27,5.38v9.73H334.19z"/>
			<path d="M366.6,244.07h6.5v17.45c0,2.77,0.08,4.56,0.24,5.38c0.28,1.32,0.94,2.38,1.99,3.17c1.05,0.8,2.48,1.2,4.3,1.2
				c1.85,0,3.24-0.38,4.17-1.13c0.94-0.75,1.5-1.68,1.69-2.78s0.29-2.92,0.29-5.47v-17.82h6.5v16.92c0,3.87-0.18,6.6-0.53,8.2
				s-1,2.94-1.94,4.04c-0.95,1.1-2.21,1.97-3.79,2.62c-1.58,0.65-3.65,0.98-6.2,0.98c-3.08,0-5.41-0.36-7-1.07
				c-1.59-0.71-2.85-1.63-3.77-2.77c-0.92-1.13-1.53-2.33-1.82-3.57c-0.42-1.85-0.64-4.57-0.64-8.17V244.07z"/>
			<path d="M399.21,276.29v-32.21h13.69c3.44,0,5.94,0.29,7.5,0.87c1.56,0.58,2.81,1.61,3.75,3.09s1.41,3.17,1.41,5.08
				c0,2.42-0.71,4.41-2.13,5.99c-1.42,1.58-3.54,2.57-6.37,2.98c1.41,0.82,2.57,1.72,3.48,2.7c0.92,0.98,2.15,2.72,3.7,5.23
				l3.93,6.28h-7.78l-4.7-7.01c-1.67-2.5-2.81-4.08-3.43-4.74c-0.62-0.65-1.27-1.1-1.96-1.34c-0.69-0.24-1.78-0.36-3.27-0.36h-1.32
				v13.45H399.21z M405.71,257.7h4.81c3.12,0,5.07-0.13,5.84-0.4s1.38-0.72,1.82-1.36c0.44-0.64,0.66-1.45,0.66-2.42
				c0-1.08-0.29-1.96-0.87-2.63c-0.58-0.67-1.4-1.09-2.45-1.26c-0.53-0.07-2.11-0.11-4.75-0.11h-5.08V257.7z"/>
			<path d="M438.98,276.29v-26.76h-9.56v-5.45h25.6v5.45h-9.54v26.76H438.98z"/>
			<path d="M471.72,276.29v-32.21h9.73l5.84,21.97l5.78-21.97h9.76v32.21h-6.04v-25.36l-6.39,25.36h-6.26l-6.37-25.36v25.36H471.72z
				"/>
			<path d="M509.34,276.29v-32.21h23.88v5.45h-17.38v7.14h16.17v5.43h-16.17v8.77h18v5.43H509.34z"/>
			<path d="M539.42,276.29v-32.21h13.69c3.44,0,5.94,0.29,7.5,0.87c1.56,0.58,2.81,1.61,3.75,3.09s1.41,3.17,1.41,5.08
				c0,2.42-0.71,4.41-2.13,5.99c-1.42,1.58-3.54,2.57-6.37,2.98c1.41,0.82,2.57,1.72,3.48,2.7c0.92,0.98,2.15,2.72,3.7,5.23
				l3.93,6.28h-7.78l-4.7-7.01c-1.67-2.5-2.81-4.08-3.43-4.74c-0.62-0.65-1.27-1.1-1.96-1.34c-0.69-0.24-1.78-0.36-3.27-0.36h-1.32
				v13.45H539.42z M545.93,257.7h4.81c3.12,0,5.07-0.13,5.85-0.4c0.78-0.26,1.38-0.72,1.82-1.36c0.44-0.64,0.66-1.45,0.66-2.42
				c0-1.08-0.29-1.96-0.87-2.63c-0.58-0.67-1.4-1.09-2.45-1.26c-0.53-0.07-2.11-0.11-4.75-0.11h-5.08V257.7z"/>
			<path d="M572.03,276.29v-32.21h6.5v14.3l13.14-14.3h8.74l-12.13,12.55l12.79,19.67h-8.42l-8.86-15.12l-5.27,5.38v9.73H572.03z"/>
		</g>
		<g>
			<path d="M334.12,298.01H347c2.55,0,4.45,0.11,5.7,0.32c1.25,0.21,2.37,0.66,3.36,1.33c0.99,0.67,1.81,1.57,2.47,2.69
				c0.66,1.12,0.99,2.38,0.99,3.77c0,1.51-0.41,2.89-1.22,4.15c-0.81,1.26-1.92,2.21-3.31,2.83c1.96,0.57,3.47,1.55,4.53,2.92
				s1.58,3,1.58,4.86c0,1.46-0.34,2.89-1.02,4.27c-0.68,1.38-1.61,2.49-2.79,3.32c-1.18,0.83-2.63,1.34-4.36,1.53
				c-1.08,0.12-3.7,0.19-7.84,0.22h-10.96V298.01z M340.63,303.37v7.45h4.26c2.53,0,4.11-0.04,4.72-0.11
				c1.11-0.13,1.99-0.52,2.63-1.15c0.64-0.64,0.96-1.48,0.96-2.52c0-1-0.27-1.8-0.82-2.43c-0.55-0.62-1.37-1-2.45-1.13
				c-0.64-0.07-2.5-0.11-5.56-0.11H340.63z M340.63,316.18v8.61h6.02c2.34,0,3.83-0.07,4.46-0.2c0.97-0.18,1.75-0.6,2.36-1.29
				c0.61-0.68,0.91-1.59,0.91-2.74c0-0.97-0.23-1.79-0.7-2.46c-0.47-0.67-1.15-1.16-2.03-1.47c-0.89-0.31-2.81-0.46-5.77-0.46
				H340.63z"/>
			<path d="M366.6,330.22v-32.21h6.17v32.21H366.6z"/>
			<path d="M392.66,322.79l6.15,1.03c-0.79,2.26-2.04,3.97-3.75,5.15c-1.71,1.18-3.84,1.77-6.41,1.77c-4.06,0-7.06-1.33-9.01-3.98
				c-1.54-2.12-2.31-4.8-2.31-8.04c0-3.87,1.01-6.9,3.03-9.08c2.02-2.19,4.58-3.29,7.67-3.29c3.47,0,6.21,1.15,8.22,3.44
				c2.01,2.29,2.97,5.8,2.88,10.54h-15.47c0.04,1.83,0.54,3.26,1.49,4.27c0.95,1.02,2.14,1.53,3.56,1.53c0.97,0,1.78-0.26,2.44-0.79
				S392.32,323.97,392.66,322.79z M393.01,316.55c-0.04-1.79-0.51-3.15-1.38-4.08c-0.88-0.93-1.95-1.4-3.21-1.4
				c-1.35,0-2.46,0.49-3.34,1.47s-1.31,2.31-1.3,4H393.01z"/>
			<path d="M424.57,313.79l-6.09,1.1c-0.21-1.22-0.67-2.13-1.4-2.75c-0.72-0.62-1.67-0.92-2.82-0.92c-1.54,0-2.77,0.53-3.68,1.59
				c-0.92,1.06-1.37,2.84-1.37,5.33c0,2.77,0.46,4.72,1.4,5.87c0.93,1.14,2.18,1.71,3.75,1.71c1.17,0,2.13-0.33,2.88-1
				c0.75-0.67,1.27-1.81,1.58-3.44l6.06,1.03c-0.63,2.78-1.84,4.89-3.63,6.31s-4.18,2.13-7.18,2.13c-3.41,0-6.13-1.08-8.16-3.23
				c-2.03-2.15-3.04-5.13-3.04-8.94c0-3.85,1.02-6.85,3.05-9c2.04-2.15,4.79-3.22,8.26-3.22c2.84,0,5.1,0.61,6.78,1.83
				C422.63,309.42,423.83,311.28,424.57,313.79z"/>
			<path d="M435.45,298.01v11.84c1.99-2.33,4.37-3.49,7.14-3.49c1.42,0,2.7,0.26,3.85,0.79s2,1.2,2.58,2.02
				c0.58,0.82,0.97,1.73,1.19,2.72s0.32,2.54,0.32,4.64v13.69h-6.17V317.9c0-2.45-0.12-4-0.35-4.66c-0.23-0.66-0.65-1.18-1.24-1.57
				c-0.59-0.39-1.34-0.58-2.23-0.58c-1.03,0-1.94,0.25-2.75,0.75c-0.81,0.5-1.39,1.25-1.77,2.25c-0.37,1-0.56,2.49-0.56,4.45v11.69
				h-6.18v-32.21H435.45z"/>
			<path d="M461.18,330.22l-7.38-23.33h6l4.37,15.29l4.02-15.29h5.96l3.89,15.29l4.46-15.29h6.09l-7.49,23.33h-5.93l-4.02-15.01
				l-3.96,15.01H461.18z"/>
			<path d="M496.49,314.01l-5.6-1.01c0.63-2.26,1.71-3.93,3.25-5.01s3.82-1.63,6.86-1.63c2.75,0,4.8,0.33,6.15,0.98
				c1.35,0.65,2.3,1.48,2.85,2.48c0.55,1,0.82,2.84,0.82,5.53l-0.07,7.21c0,2.05,0.1,3.56,0.3,4.54c0.2,0.97,0.57,2.02,1.11,3.13
				h-6.11c-0.16-0.41-0.36-1.02-0.59-1.82c-0.1-0.37-0.18-0.61-0.22-0.72c-1.05,1.03-2.18,1.79-3.38,2.31
				c-1.2,0.51-2.48,0.77-3.84,0.77c-2.4,0-4.3-0.65-5.68-1.96c-1.38-1.3-2.08-2.95-2.08-4.94c0-1.32,0.32-2.49,0.95-3.53
				c0.63-1.03,1.51-1.82,2.65-2.37c1.14-0.55,2.77-1.03,4.91-1.44c2.89-0.54,4.88-1.05,6-1.52v-0.62c0-1.19-0.29-2.03-0.88-2.54
				c-0.59-0.51-1.69-0.76-3.32-0.76c-1.1,0-1.96,0.22-2.57,0.65C497.37,312.16,496.87,312.92,496.49,314.01z M504.75,319.02
				c-0.79,0.26-2.04,0.58-3.76,0.94c-1.71,0.37-2.83,0.73-3.36,1.08c-0.81,0.57-1.21,1.3-1.21,2.17c0,0.87,0.32,1.61,0.97,2.24
				s1.46,0.94,2.46,0.94c1.11,0,2.17-0.37,3.19-1.1c0.75-0.56,1.24-1.24,1.47-2.04c0.16-0.53,0.24-1.53,0.24-3.01V319.02z"/>
			<path d="M522.86,330.22h-6.17v-23.33h5.73v3.32c0.98-1.57,1.86-2.6,2.65-3.1c0.78-0.5,1.67-0.75,2.67-0.75
				c1.41,0,2.76,0.39,4.07,1.17l-1.91,5.38c-1.04-0.67-2.01-1.01-2.9-1.01c-0.86,0-1.6,0.24-2.2,0.71c-0.6,0.48-1.07,1.34-1.42,2.58
				c-0.34,1.25-0.52,3.85-0.52,7.82V330.22z"/>
			<path d="M548.02,322.79l6.15,1.03c-0.79,2.26-2.04,3.97-3.75,5.15c-1.71,1.18-3.84,1.77-6.41,1.77c-4.06,0-7.06-1.33-9.01-3.98
				c-1.54-2.12-2.31-4.8-2.31-8.04c0-3.87,1.01-6.9,3.03-9.08c2.02-2.19,4.58-3.29,7.67-3.29c3.47,0,6.21,1.15,8.22,3.44
				c2.01,2.29,2.97,5.8,2.88,10.54h-15.47c0.04,1.83,0.54,3.26,1.49,4.27c0.95,1.02,2.14,1.53,3.56,1.53c0.97,0,1.78-0.26,2.44-0.79
				S547.68,323.97,548.02,322.79z M548.37,316.55c-0.04-1.79-0.5-3.15-1.38-4.08c-0.88-0.93-1.95-1.4-3.21-1.4
				c-1.35,0-2.46,0.49-3.34,1.47s-1.31,2.31-1.3,4H548.37z"/>
			<path d="M580.8,330.22h-6.17v-11.91c0-2.52-0.13-4.15-0.4-4.89c-0.26-0.74-0.69-1.31-1.29-1.73c-0.59-0.41-1.31-0.62-2.14-0.62
				c-1.07,0-2.03,0.29-2.88,0.88c-0.85,0.59-1.43,1.36-1.75,2.33c-0.32,0.97-0.47,2.75-0.47,5.36v10.57h-6.17v-23.33h5.74v3.43
				c2.04-2.64,4.6-3.96,7.69-3.96c1.36,0,2.61,0.25,3.74,0.74c1.13,0.49,1.98,1.12,2.56,1.88c0.58,0.76,0.98,1.63,1.21,2.59
				c0.23,0.97,0.34,2.35,0.34,4.15V330.22z"/>
			<path d="M584.4,306.89h3.43v-1.76c0-1.96,0.21-3.43,0.63-4.39c0.42-0.97,1.19-1.75,2.31-2.36c1.12-0.61,2.54-0.91,4.25-0.91
				c1.76,0,3.48,0.26,5.16,0.79l-0.83,4.31c-0.98-0.23-1.93-0.35-2.83-0.35c-0.89,0-1.54,0.21-1.92,0.63
				c-0.39,0.42-0.58,1.22-0.58,2.41v1.65h4.62v4.86h-4.62v18.48h-6.17v-18.48h-3.43V306.89z"/>
			<path d="M606.75,314.01l-5.6-1.01c0.63-2.26,1.71-3.93,3.25-5.01s3.82-1.63,6.86-1.63c2.75,0,4.8,0.33,6.15,0.98
				c1.35,0.65,2.3,1.48,2.85,2.48c0.55,1,0.82,2.84,0.82,5.53l-0.07,7.21c0,2.05,0.1,3.56,0.3,4.54c0.2,0.97,0.57,2.02,1.11,3.13
				h-6.11c-0.16-0.41-0.36-1.02-0.59-1.82c-0.1-0.37-0.18-0.61-0.22-0.72c-1.05,1.03-2.18,1.79-3.38,2.31
				c-1.2,0.51-2.48,0.77-3.84,0.77c-2.4,0-4.3-0.65-5.68-1.96c-1.38-1.3-2.08-2.95-2.08-4.94c0-1.32,0.32-2.49,0.95-3.53
				c0.63-1.03,1.51-1.82,2.65-2.37c1.14-0.55,2.77-1.03,4.91-1.44c2.89-0.54,4.88-1.05,6-1.52v-0.62c0-1.19-0.29-2.03-0.88-2.54
				c-0.59-0.51-1.69-0.76-3.32-0.76c-1.1,0-1.96,0.22-2.57,0.65C607.63,312.16,607.13,312.92,606.75,314.01z M615.01,319.02
				c-0.79,0.26-2.04,0.58-3.76,0.94c-1.71,0.37-2.83,0.73-3.36,1.08c-0.81,0.57-1.21,1.3-1.21,2.17c0,0.87,0.32,1.61,0.97,2.24
				s1.46,0.94,2.46,0.94c1.11,0,2.17-0.37,3.19-1.1c0.75-0.56,1.24-1.24,1.47-2.04c0.16-0.53,0.24-1.53,0.24-3.01V319.02z"/>
			<path d="M626.95,330.22v-32.21h6.17v11.6c1.9-2.17,4.16-3.25,6.77-3.25c2.84,0,5.19,1.03,7.05,3.09
				c1.86,2.06,2.79,5.01,2.79,8.87c0,3.98-0.95,7.05-2.85,9.21c-1.9,2.15-4.2,3.23-6.91,3.23c-1.33,0-2.65-0.33-3.94-1
				c-1.3-0.67-2.41-1.65-3.35-2.96v3.43H626.95z M633.08,318.05c0,2.42,0.38,4.2,1.14,5.36c1.07,1.64,2.49,2.46,4.26,2.46
				c1.36,0,2.52-0.58,3.48-1.75c0.96-1.16,1.44-3,1.44-5.5c0-2.67-0.48-4.59-1.45-5.77c-0.97-1.18-2.21-1.77-3.71-1.77
				c-1.48,0-2.71,0.58-3.69,1.73C633.57,313.96,633.08,315.7,633.08,318.05z"/>
			<path d="M660.65,330.22h-6.17v-23.33h5.73v3.32c0.98-1.57,1.86-2.6,2.65-3.1c0.78-0.5,1.67-0.75,2.67-0.75
				c1.41,0,2.76,0.39,4.07,1.17l-1.91,5.38c-1.04-0.67-2.01-1.01-2.9-1.01c-0.86,0-1.6,0.24-2.2,0.71c-0.6,0.48-1.07,1.34-1.42,2.58
				c-0.34,1.25-0.52,3.85-0.52,7.82V330.22z"/>
			<path d="M672.3,303.72v-5.71h6.17v5.71H672.3z M672.3,330.22v-23.33h6.17v23.33H672.3z"/>
			<path d="M684.63,330.22v-32.21h6.17v17.09l7.23-8.22h7.6l-7.98,8.53l8.55,14.81h-6.66l-5.87-10.48l-2.88,3.01v7.47H684.63z"/>
		</g>
	</g>
</g>
</svg>
