<?xml version="1.0" encoding="utf-8"?>
<!-- Generator: Adobe Illustrator 27.5.0, SVG Export Plug-In . SVG Version: 6.00 Build 0)  -->
<svg version="1.1" id="KM_Logo" xmlns="http://www.w3.org/2000/svg" xmlns:xlink="http://www.w3.org/1999/xlink" x="0px" y="0px"
	 viewBox="0 0 841.9 595.3" style="enable-background:new 0 0 841.9 595.3;" xml:space="preserve">
<style type="text/css">
	.st0{fill:#025AA1;stroke:#FFFFFF;stroke-miterlimit:10;}
	.st1{fill:#FFFFFF;}
</style>
<rect x="130.1" y="199.4" class="st0" width="181" height="176"/>
<path class="st1" d="M274.7,215.8c-9.1,0-15.1,2.3-18.8,11.6c-3.6-9.2-9.7-11.6-18.8-11.6c-11.4,0-18.8,8.7-18.8,19.4
	c0,0.1,0,0.2,0,0.3v1.3v116.7l-66.1-66.1l64.1-68.2h-68.6V359h70.6h21.4V239.9v-3.7v-1c0-1.5,1.2-2.7,2.7-2.7s2.7,1.2,2.7,2.7v0.8
	v3.9V359h21.4V239.9v-3.1v-1.6c0-1.5,1.2-2.7,2.7-2.7c1.5,0,2.7,1.2,2.7,2.7v4.7l0,0v119.2h21.5V236.8v-1.3c0-0.1,0-0.2,0-0.3
	C293.5,224.4,286.1,215.8,274.7,215.8z"/>
<g>
	<g>
		<path class="st1" d="M334.2,276.3v-32.2h6.5v14.3l13.1-14.3h8.8l-12.1,12.6l12.8,19.7h-8.4l-8.9-15.1l-5.3,5.4v9.7L334.2,276.3
			L334.2,276.3z"/>
		<path class="st1" d="M366.6,244.1h6.5v17.5c0,2.8,0.1,4.6,0.2,5.4c0.3,1.3,0.9,2.4,2,3.2c1,0.8,2.5,1.2,4.3,1.2
			c1.9,0,3.2-0.4,4.2-1.1c0.9-0.8,1.5-1.7,1.7-2.8s0.3-2.9,0.3-5.5v-17.8h6.5V261c0,3.9-0.2,6.6-0.5,8.2s-1,2.9-1.9,4
			c-1,1.1-2.2,2-3.8,2.6c-1.6,0.6-3.6,1-6.2,1c-3.1,0-5.4-0.4-7-1.1c-1.6-0.7-2.9-1.6-3.8-2.8c-0.9-1.1-1.5-2.3-1.8-3.6
			c-0.4-1.9-0.6-4.6-0.6-8.2L366.6,244.1L366.6,244.1z"/>
		<path class="st1" d="M399.2,276.3v-32.2h13.7c3.4,0,5.9,0.3,7.5,0.9s2.8,1.6,3.8,3.1s1.4,3.2,1.4,5.1c0,2.4-0.7,4.4-2.1,6
			c-1.4,1.6-3.5,2.6-6.4,3c1.4,0.8,2.6,1.7,3.5,2.7c0.9,1,2.1,2.7,3.7,5.2l3.9,6.3h-7.8l-4.7-7c-1.7-2.5-2.8-4.1-3.4-4.7
			c-0.6-0.6-1.3-1.1-2-1.3s-1.8-0.4-3.3-0.4h-1.3v13.5L399.2,276.3L399.2,276.3z M405.7,257.7h4.8c3.1,0,5.1-0.1,5.8-0.4
			s1.4-0.7,1.8-1.4s0.7-1.4,0.7-2.4c0-1.1-0.3-2-0.9-2.6s-1.4-1.1-2.5-1.3c-0.5-0.1-2.1-0.1-4.8-0.1h-5.1L405.7,257.7L405.7,257.7z"
			/>
		<path class="st1" d="M439,276.3v-26.8h-9.6v-5.4H455v5.4h-9.5v26.8H439z"/>
		<path class="st1" d="M471.7,276.3v-32.2h9.7l5.8,22l5.8-22h9.8v32.2h-6v-25.4l-6.4,25.4h-6.3l-6.4-25.4v25.4H471.7z"/>
		<path class="st1" d="M509.3,276.3v-32.2h23.9v5.4h-17.4v7.1H532v5.4h-16.2v8.8h18v5.4L509.3,276.3L509.3,276.3z"/>
		<path class="st1" d="M539.4,276.3v-32.2h13.7c3.4,0,5.9,0.3,7.5,0.9s2.8,1.6,3.8,3.1s1.4,3.2,1.4,5.1c0,2.4-0.7,4.4-2.1,6
			c-1.4,1.6-3.5,2.6-6.4,3c1.4,0.8,2.6,1.7,3.5,2.7c0.9,1,2.2,2.7,3.7,5.2l3.9,6.3h-7.8l-4.7-7c-1.7-2.5-2.8-4.1-3.4-4.7
			c-0.6-0.6-1.3-1.1-2-1.3s-1.8-0.4-3.3-0.4h-1.3v13.5L539.4,276.3L539.4,276.3z M545.9,257.7h4.8c3.1,0,5.1-0.1,5.8-0.4
			c0.8-0.3,1.4-0.7,1.8-1.4s0.7-1.4,0.7-2.4c0-1.1-0.3-2-0.9-2.6s-1.4-1.1-2.5-1.3c-0.5-0.1-2.1-0.1-4.8-0.1h-5.1L545.9,257.7
			L545.9,257.7z"/>
		<path class="st1" d="M572,276.3v-32.2h6.5v14.3l13.1-14.3h8.7l-12.1,12.6l12.8,19.7h-8.4l-8.9-15.1l-5.3,5.4v9.7L572,276.3
			L572,276.3z"/>
	</g>
	<g>
		<path class="st1" d="M334.1,298H347c2.5,0,4.5,0.1,5.7,0.3c1.2,0.2,2.4,0.7,3.4,1.3c1,0.7,1.8,1.6,2.5,2.7s1,2.4,1,3.8
			c0,1.5-0.4,2.9-1.2,4.1c-0.8,1.3-1.9,2.2-3.3,2.8c2,0.6,3.5,1.5,4.5,2.9s1.6,3,1.6,4.9c0,1.5-0.3,2.9-1,4.3
			c-0.7,1.4-1.6,2.5-2.8,3.3c-1.2,0.8-2.6,1.3-4.4,1.5c-1.1,0.1-3.7,0.2-7.8,0.2h-11L334.1,298L334.1,298z M340.6,303.4v7.5h4.3
			c2.5,0,4.1,0,4.7-0.1c1.1-0.1,2-0.5,2.6-1.1c0.6-0.6,1-1.5,1-2.5c0-1-0.3-1.8-0.8-2.4c-0.5-0.6-1.4-1-2.5-1.1
			c-0.6-0.1-2.5-0.1-5.6-0.1L340.6,303.4L340.6,303.4z M340.6,316.2v8.6h6c2.3,0,3.8-0.1,4.5-0.2c1-0.2,1.8-0.6,2.4-1.3
			c0.6-0.7,0.9-1.6,0.9-2.7c0-1-0.2-1.8-0.7-2.5c-0.5-0.7-1.1-1.2-2-1.5c-0.9-0.3-2.8-0.5-5.8-0.5L340.6,316.2L340.6,316.2z"/>
		<path class="st1" d="M366.6,330.2V298h6.2v32.2H366.6z"/>
		<path class="st1" d="M392.7,322.8l6.1,1c-0.8,2.3-2,4-3.8,5.1s-3.8,1.8-6.4,1.8c-4.1,0-7.1-1.3-9-4c-1.5-2.1-2.3-4.8-2.3-8
			c0-3.9,1-6.9,3-9.1c2-2.2,4.6-3.3,7.7-3.3c3.5,0,6.2,1.1,8.2,3.4s3,5.8,2.9,10.5h-15.5c0,1.8,0.5,3.3,1.5,4.3c1,1,2.1,1.5,3.6,1.5
			c1,0,1.8-0.3,2.4-0.8S392.3,324,392.7,322.8z M393,316.5c0-1.8-0.5-3.1-1.4-4.1c-0.9-0.9-2-1.4-3.2-1.4c-1.4,0-2.5,0.5-3.3,1.5
			s-1.3,2.3-1.3,4L393,316.5L393,316.5z"/>
		<path class="st1" d="M424.6,313.8l-6.1,1.1c-0.2-1.2-0.7-2.1-1.4-2.8c-0.7-0.6-1.7-0.9-2.8-0.9c-1.5,0-2.8,0.5-3.7,1.6
			c-0.9,1.1-1.4,2.8-1.4,5.3c0,2.8,0.5,4.7,1.4,5.9c0.9,1.1,2.2,1.7,3.8,1.7c1.2,0,2.1-0.3,2.9-1s1.3-1.8,1.6-3.4l6.1,1
			c-0.6,2.8-1.8,4.9-3.6,6.3s-4.2,2.1-7.2,2.1c-3.4,0-6.1-1.1-8.2-3.2c-2-2.1-3-5.1-3-8.9c0-3.9,1-6.9,3-9c2-2.1,4.8-3.2,8.3-3.2
			c2.8,0,5.1,0.6,6.8,1.8C422.6,309.4,423.8,311.3,424.6,313.8z"/>
		<path class="st1" d="M435.5,298v11.8c2-2.3,4.4-3.5,7.1-3.5c1.4,0,2.7,0.3,3.9,0.8s2,1.2,2.6,2c0.6,0.8,1,1.7,1.2,2.7
			s0.3,2.5,0.3,4.6v13.7h-6.2v-12.3c0-2.5-0.1-4-0.4-4.7s-0.6-1.2-1.2-1.6s-1.3-0.6-2.2-0.6c-1,0-1.9,0.2-2.8,0.8s-1.4,1.2-1.8,2.2
			c-0.4,1-0.6,2.5-0.6,4.5v11.7h-6.2V298L435.5,298L435.5,298z"/>
		<path class="st1" d="M461.2,330.2l-7.4-23.3h6l4.4,15.3l4-15.3h6l3.9,15.3l4.5-15.3h6.1l-7.5,23.3h-5.9l-4-15l-4,15H461.2z"/>
		<path class="st1" d="M496.5,314l-5.6-1c0.6-2.3,1.7-3.9,3.2-5s3.8-1.6,6.9-1.6c2.8,0,4.8,0.3,6.1,1c1.4,0.6,2.3,1.5,2.9,2.5
			c0.5,1,0.8,2.8,0.8,5.5l-0.1,7.2c0,2,0.1,3.6,0.3,4.5c0.2,1,0.6,2,1.1,3.1H506c-0.2-0.4-0.4-1-0.6-1.8c-0.1-0.4-0.2-0.6-0.2-0.7
			c-1,1-2.2,1.8-3.4,2.3c-1.2,0.5-2.5,0.8-3.8,0.8c-2.4,0-4.3-0.6-5.7-2c-1.4-1.3-2.1-3-2.1-4.9c0-1.3,0.3-2.5,1-3.5
			c0.6-1,1.5-1.8,2.6-2.4c1.1-0.5,2.8-1,4.9-1.4c2.9-0.5,4.9-1,6-1.5v-0.6c0-1.2-0.3-2-0.9-2.5s-1.7-0.8-3.3-0.8
			c-1.1,0-2,0.2-2.6,0.6C497.4,312.2,496.9,312.9,496.5,314z M504.8,319c-0.8,0.3-2,0.6-3.8,0.9c-1.7,0.4-2.8,0.7-3.4,1.1
			c-0.8,0.6-1.2,1.3-1.2,2.2c0,0.9,0.3,1.6,1,2.2s1.5,0.9,2.5,0.9c1.1,0,2.2-0.4,3.2-1.1c0.8-0.6,1.2-1.2,1.5-2
			c0.2-0.5,0.2-1.5,0.2-3V319z"/>
		<path class="st1" d="M522.9,330.2h-6.2v-23.3h5.7v3.3c1-1.6,1.9-2.6,2.7-3.1c0.8-0.5,1.7-0.8,2.7-0.8c1.4,0,2.8,0.4,4.1,1.2
			l-1.9,5.4c-1-0.7-2-1-2.9-1c-0.9,0-1.6,0.2-2.2,0.7c-0.6,0.5-1.1,1.3-1.4,2.6c-0.3,1.2-0.5,3.9-0.5,7.8V330.2z"/>
		<path class="st1" d="M548,322.8l6.2,1c-0.8,2.3-2,4-3.8,5.1s-3.8,1.8-6.4,1.8c-4.1,0-7.1-1.3-9-4c-1.5-2.1-2.3-4.8-2.3-8
			c0-3.9,1-6.9,3-9.1c2-2.2,4.6-3.3,7.7-3.3c3.5,0,6.2,1.1,8.2,3.4c2,2.3,3,5.8,2.9,10.5H539c0,1.8,0.5,3.3,1.5,4.3
			c1,1,2.1,1.5,3.6,1.5c1,0,1.8-0.3,2.4-0.8S547.7,324,548,322.8z M548.4,316.5c0-1.8-0.5-3.1-1.4-4.1s-2-1.4-3.2-1.4
			c-1.3,0-2.5,0.5-3.3,1.5s-1.3,2.3-1.3,4L548.4,316.5L548.4,316.5z"/>
		<path class="st1" d="M580.8,330.2h-6.2v-11.9c0-2.5-0.1-4.1-0.4-4.9c-0.3-0.7-0.7-1.3-1.3-1.7c-0.6-0.4-1.3-0.6-2.1-0.6
			c-1.1,0-2,0.3-2.9,0.9s-1.4,1.4-1.8,2.3s-0.5,2.8-0.5,5.4v10.6h-6.2v-23.3h5.7v3.4c2-2.6,4.6-4,7.7-4c1.4,0,2.6,0.2,3.7,0.7
			s2,1.1,2.6,1.9s1,1.6,1.2,2.6c0.2,1,0.3,2.4,0.3,4.1L580.8,330.2L580.8,330.2z"/>
		<path class="st1" d="M584.4,306.9h3.4v-1.8c0-2,0.2-3.4,0.6-4.4c0.4-1,1.2-1.8,2.3-2.4s2.5-0.9,4.2-0.9c1.8,0,3.5,0.3,5.2,0.8
			l-0.8,4.3c-1-0.2-1.9-0.4-2.8-0.4c-0.9,0-1.5,0.2-1.9,0.6c-0.4,0.4-0.6,1.2-0.6,2.4v1.6h4.6v4.9H594v18.5h-6.2v-18.5h-3.4
			L584.4,306.9L584.4,306.9z"/>
		<path class="st1" d="M606.8,314l-5.6-1c0.6-2.3,1.7-3.9,3.2-5s3.8-1.6,6.9-1.6c2.8,0,4.8,0.3,6.2,1c1.3,0.6,2.3,1.5,2.8,2.5
			s0.8,2.8,0.8,5.5l-0.1,7.2c0,2,0.1,3.6,0.3,4.5c0.2,1,0.6,2,1.1,3.1h-6.1c-0.2-0.4-0.4-1-0.6-1.8c-0.1-0.4-0.2-0.6-0.2-0.7
			c-1,1-2.2,1.8-3.4,2.3c-1.2,0.5-2.5,0.8-3.8,0.8c-2.4,0-4.3-0.6-5.7-2c-1.4-1.3-2.1-3-2.1-4.9c0-1.3,0.3-2.5,1-3.5
			c0.6-1,1.5-1.8,2.7-2.4s2.8-1,4.9-1.4c2.9-0.5,4.9-1,6-1.5v-0.6c0-1.2-0.3-2-0.9-2.5s-1.7-0.8-3.3-0.8c-1.1,0-2,0.2-2.6,0.6
			C607.6,312.2,607.1,312.9,606.8,314z M615,319c-0.8,0.3-2,0.6-3.8,0.9c-1.7,0.4-2.8,0.7-3.4,1.1c-0.8,0.6-1.2,1.3-1.2,2.2
			c0,0.9,0.3,1.6,1,2.2s1.5,0.9,2.5,0.9c1.1,0,2.2-0.4,3.2-1.1c0.8-0.6,1.2-1.2,1.5-2c0.2-0.5,0.2-1.5,0.2-3L615,319L615,319z"/>
		<path class="st1" d="M627,330.2V298h6.2v11.6c1.9-2.2,4.2-3.2,6.8-3.2c2.8,0,5.2,1,7,3.1s2.8,5,2.8,8.9c0,4-1,7-2.8,9.2
			c-1.9,2.1-4.2,3.2-6.9,3.2c-1.3,0-2.7-0.3-3.9-1c-1.3-0.7-2.4-1.6-3.3-3v3.4L627,330.2L627,330.2z M633.1,318
			c0,2.4,0.4,4.2,1.1,5.4c1.1,1.6,2.5,2.5,4.3,2.5c1.4,0,2.5-0.6,3.5-1.8c1-1.2,1.4-3,1.4-5.5c0-2.7-0.5-4.6-1.5-5.8
			c-1-1.2-2.2-1.8-3.7-1.8c-1.5,0-2.7,0.6-3.7,1.7C633.6,314,633.1,315.7,633.1,318z"/>
		<path class="st1" d="M660.7,330.2h-6.2v-23.3h5.7v3.3c1-1.6,1.9-2.6,2.7-3.1c0.8-0.5,1.7-0.8,2.7-0.8c1.4,0,2.8,0.4,4.1,1.2
			l-1.9,5.4c-1-0.7-2-1-2.9-1c-0.9,0-1.6,0.2-2.2,0.7c-0.6,0.5-1.1,1.3-1.4,2.6c-0.3,1.2-0.5,3.9-0.5,7.8V330.2z"/>
		<path class="st1" d="M672.3,303.7V298h6.2v5.7H672.3z M672.3,330.2v-23.3h6.2v23.3H672.3z"/>
		<path class="st1" d="M684.6,330.2V298h6.2v17.1l7.2-8.2h7.6l-8,8.5l8.5,14.8h-6.7l-5.9-10.5l-2.9,3v7.5H684.6z"/>
	</g>
</g>
</svg>
